<svg width="128" height="128" viewBox="0 0 128 128" fill="none" xmlns="http://www.w3.org/2000/svg">
<g clip-path="url(#clip0_217_26)">
<path d="M114.67 70.19C112.71 44.22 94.44 26.3 64 26.3C33.56 26.3 15.25 45.33 13.45 71.31C12.4 86.45 18.03 99.94 29.36 107.63C36.82 112.7 47.24 115.51 64.13 115.51C81.31 115.51 91.16 111.8 98.62 106.78C111.05 98.43 115.8 85.11 114.67 70.19V70.19Z" fill="#FFC022"/>
<path d="M53.72 42.6C46.3 23.4 30.1 10.34 23.87 8.39C21.52 7.65 18.57 7.58 17.24 9.74C13.88 15.19 9.58 32.69 19.09 57.52L53.72 42.6Z" fill="#FFC022"/>
<path d="M36.12 34.21C37.66 32.92 38.41 31.66 36.72 29.05C34.1 25 29.39 20.27 27.56 18.82C24.56 16.44 22.24 15.64 21.35 19.47C19.7 26.55 19.83 36.16 21.6 41.46C22.22 43.33 24.14 44.32 25.62 43.03L36.12 34.21V34.21Z" fill="#FFD1D1"/>
<path d="M54.12 45.02C55.25 45.98 57.54 45.84 58.87 44.3C60.48 42.43 62.16 36.13 61.11 26.39C56.44 26.56 52.02 27.23 47.9 28.36C51.23 33.82 52.03 43.24 54.12 45.02ZM73.88 45.02C72.75 45.98 70.46 45.84 69.13 44.3C67.52 42.43 65.84 36.13 66.89 26.39C71.56 26.56 75.98 27.23 80.1 28.36C76.77 33.82 75.97 43.24 73.88 45.02Z" fill="#FF9B31"/>
<path d="M79.9 29.22C87.98 16.81 99.28 8.47 103.97 6.98C106.29 6.24 108.99 6.36 110.31 8.53C113.63 13.98 116.44 30.77 109.89 54.28L85.96 42.74L79.9 29.22Z" fill="#FFC022"/>
<path d="M97.55 38.23C99.98 40.66 101.96 42.29 103.39 43.84C104.34 44.87 106.08 44.4 106.36 43.02C108.81 31.22 108.03 21.16 106.36 18.52C105.56 17.26 104.07 16.93 102.71 17.39C100.27 18.2 94.05 22.84 89.66 29.61C89.15 30.4 89.34 31.46 90.12 31.99C91.7 33.06 94.46 35.13 97.55 38.23V38.23Z" fill="#FFD1D1"/>
<path d="M55.67 77.75C55.62 74.67 60.04 73.2 64.21 73.13C68.39 73.06 72.89 74.42 72.94 77.5C72.99 80.58 67.72 84.63 64.4 84.63C61.09 84.63 55.73 80.82 55.67 77.75Z" fill="black"/>
<path d="M120.45 89.05C120.45 89.05 115.62 87.34 105.67 86.8M6.69999 71.03C7.03999 71.44 11.11 71.38 21.06 76.1L6.69999 71.03ZM2.89999 82.86C2.89999 82.86 9.31999 80.62 20.36 82.58L2.89999 82.86ZM8.80999 92.29C8.80999 92.29 11.55 90.91 21.48 90.04L8.80999 92.29ZM120.87 67.51C120.87 67.51 117.46 67.84 106.93 73.85L120.87 67.51ZM122.42 78.49C122.42 78.49 117.33 78.13 106.37 80.46L122.42 78.49Z" stroke="#9E9E9E" stroke-width="3" stroke-miterlimit="10" stroke-linecap="round"/>
<path d="M96.09 66.37C95.75 71.88 92.33 74.91 88.44 74.91C84.55 74.91 81.4 71.03 81.4 66.25C81.4 61.47 84.68 57.54 89.05 57.78C94.12 58.07 96.37 61.87 96.09 66.37ZM46 65.81C46.78 71.42 44.42 74.84 40.51 75.63C36.6 76.42 33.25 73.79 32.28 68.99C31.3 64.18 33.18 59.67 37.62 59.02C42.77 58.27 45.36 61.22 46 65.81V65.81Z" fill="#000200"/>
<path d="M44.99 85.16C42.42 86.83 45.46 90.7 47.24 92.01C49.02 93.32 52.22 94.93 56.91 94.45C62.45 93.89 64.04 89.76 64.04 89.76C64.04 89.76 66.01 94.36 72.86 94.55C79.81 94.74 81.96 90.98 82.9 89.86C83.84 88.73 84.78 85.82 83.18 84.7C81.58 83.57 80.46 84.98 78.77 87.33C77.08 89.68 73.61 90.99 70.23 89.39C66.85 87.79 66.66 82.35 66.66 82.35L61.87 82.63C61.87 82.63 61.12 87.32 58.96 88.82C56.8 90.32 51.64 90.7 49.48 87.41C48.53 85.95 47.15 83.75 44.99 85.16V85.16Z" fill="black"/>
</g>
<defs>
<clipPath id="clip0_217_26">
<rect width="128" height="128" fill="white"/>
</clipPath>
</defs>
</svg>
